<svg xmlns:dc="http://purl.org/dc/elements/1.1/" xmlns:cc="http://creativecommons.org/ns#" xmlns:rdf="http://www.w3.org/1999/02/22-rdf-syntax-ns#" xmlns:svg="http://www.w3.org/2000/svg" xmlns="http://www.w3.org/2000/svg" xmlns:sodipodi="http://sodipodi.sourceforge.net/DTD/sodipodi-0.dtd" xmlns:inkscape="http://www.inkscape.org/namespaces/inkscape" viewBox="0 0 16.933333 21.1666675" version="1.1" enable-background="new" x="0px" y="0px"><svg:g style="" display="inline"><svg:path style="color:#000000;font-style:normal;font-variant:normal;font-weight:normal;font-stretch:normal;font-size:medium;line-height:normal;font-family:sans-serif;font-variant-ligatures:normal;font-variant-position:normal;font-variant-caps:normal;font-variant-numeric:normal;font-variant-alternates:normal;font-feature-settings:normal;text-indent:0;text-align:start;text-decoration:none;text-decoration-line:none;text-decoration-style:solid;text-decoration-color:#000000;letter-spacing:normal;word-spacing:normal;text-transform:none;writing-mode:lr-tb;direction:ltr;text-orientation:mixed;dominant-baseline:auto;baseline-shift:baseline;text-anchor:start;white-space:normal;shape-padding:0;clip-rule:nonzero;display:inline;overflow:visible;visibility:visible;opacity:1;isolation:auto;mix-blend-mode:normal;color-interpolation:sRGB;color-interpolation-filters:linearRGB;solid-color:#000000;solid-opacity:1;vector-effect:none;fill:#000000;fill-opacity:1;fill-rule:nonzero;stroke:none;stroke-width:0.58141738;stroke-linecap:round;stroke-linejoin:round;stroke-miterlimit:4;stroke-dasharray:none;stroke-dashoffset:6.20000076;stroke-opacity:1;color-rendering:auto;image-rendering:auto;shape-rendering:auto;text-rendering:auto;enable-background:accumulate" d="m 11.559242,1.0273274 c -1.564727,-3e-7 -2.8396191,1.2748936 -2.8396191,2.8396199 0,1.4665799 1.1198119,2.6788814 2.5486811,2.8251507 v 3.389457 h -0.581877 a 0.29073776,0.29073776 0 0 0 -0.28887,0.291455 v 3.560506 h 2.323889 V 10.37301 A 0.29073776,0.29073776 0 0 0 12.430507,10.081555 H 11.84863 V 6.692098 c 0,0 5.16e-4,0 5.16e-4,0 1.429189,-0.1457946 2.548165,-1.35822 2.548165,-2.8251507 0,-1.5647259 -1.273341,-2.8396196 -2.838069,-2.8396199 z M 2.8269579,1.3161987 A 0.29073776,0.29073776 0 0 0 2.5360221,1.60507 V 6.1794678 A 0.29073776,0.29073776 0 0 0 2.8269579,6.470406 h 1.7383972 v 3.611149 H 3.9850286 A 0.29073776,0.29073776 0 0 0 3.6940901,10.37301 v 3.560506 H 6.0184943 V 10.37301 A 0.29073776,0.29073776 0 0 0 5.7275585,10.081555 H 5.147232 V 6.470406 H 6.8876929 A 0.29073776,0.29073776 0 0 0 7.176565,6.1794678 V 1.60507 A 0.29073776,0.29073776 0 0 0 6.8876929,1.3161987 Z M 10.55672,2.4391276 a 0.3698858,0.3698858 0 1 1 0,0.7394898 0.3698858,0.3698858 0 1 1 0,-0.7394898 z m 2.004013,0 a 0.3698858,0.3698858 0 1 1 0,0.7394898 0.3698858,0.3698858 0 1 1 0,-0.7394898 z M 4.1121529,2.7362672 A 0.29073779,0.29073779 0 0 1 4.4072242,3.0308227 V 4.593518 a 0.29119645,0.29119645 0 0 1 -0.5823929,0 V 3.0308227 A 0.29073779,0.29073779 0 0 1 4.1121529,2.7362672 Z m 1.480529,0 A 0.29073779,0.29073779 0 0 1 5.8877531,3.0308227 V 4.593518 a 0.29119644,0.29119644 0 0 1 -0.5823928,0 V 3.0308227 A 0.29073779,0.29073779 0 0 1 5.5926819,2.7362672 Z M 11.558726,3.497461 a 0.3698858,0.3698858 0 1 1 0,0.7394897 0.3698858,0.3698858 0 1 1 0,-0.7394897 z M 10.55672,4.5557943 a 0.3698858,0.3698858 0 1 1 0,0.7394897 0.3698858,0.3698858 0 1 1 0,-0.7394897 z m 2.004013,0 a 0.3698858,0.3698858 0 1 1 0,0.7394897 0.3698858,0.3698858 0 1 1 0,-0.7394897 z M 3.6940901,14.515393 v 0.22841 c 0,0.638835 0.523367,1.162203 1.1622034,1.162203 0.6388339,0 1.1622008,-0.523368 1.1622008,-1.162203 v -0.22841 z m 6.7034669,0 v 0.22841 c 0,0.638835 0.522849,1.162203 1.161685,1.162203 0.638837,0 1.162204,-0.523368 1.162204,-1.162203 v -0.22841 z"/></svg:g><text x="0" y="31.933334" fill="#000000" font-size="5px" font-weight="bold" font-family="'Helvetica Neue', Helvetica, Arial-Unicode, Arial, Sans-serif">Created by Larea</text><text x="0" y="36.933334" fill="#000000" font-size="5px" font-weight="bold" font-family="'Helvetica Neue', Helvetica, Arial-Unicode, Arial, Sans-serif">from the Noun Project</text></svg>